<svg viewBox="0 0 24 25" fill="none" xmlns="http://www.w3.org/2000/svg">
<g>
<path fill-rule="evenodd" clip-rule="evenodd" d="M11.7185 1.26809C11.2011 1.34079 10.7851 1.54486 10.4252 1.90253C10.3181 2.009 10.1819 2.17172 10.1225 2.26412C10.0011 2.45309 0.355637 20.2527 0.212381 20.5521C0.0553255 20.8803 0.0157735 21.0718 0.0164215 21.5001C0.0168775 21.8026 0.0264775 21.907 0.0677335 22.0589C0.313397 22.9633 1.07509 23.6273 1.98668 23.7317C2.27485 23.7648 21.7252 23.7648 22.0134 23.7317C22.7859 23.6432 23.4511 23.1603 23.7888 22.4429C23.8874 22.2334 23.976 21.928 23.976 21.7977C23.976 21.7544 23.9868 21.7123 24 21.7041C24.0133 21.6959 24.024 21.5874 24.024 21.4613C24.024 21.3154 24.0154 21.2386 24 21.2481C23.9861 21.2567 23.976 21.2336 23.976 21.1934C23.976 21.0695 23.8819 20.749 23.7877 20.5521C23.646 20.256 13.9999 2.45463 13.8779 2.26412C13.6477 1.90462 13.1938 1.53901 12.8006 1.39628C12.4723 1.27712 12.0285 1.22453 11.7185 1.26809ZM11.808 2.77714C11.6843 2.81785 11.5532 2.89897 11.4672 2.98808C11.4057 3.0518 9.87447 5.85596 6.48944 12.1041C3.80055 17.0673 1.58065 21.1795 1.55629 21.2424C1.42181 21.5895 1.5985 22.0226 1.93875 22.1798L2.05203 22.2321H12H21.948L22.0613 22.1798C22.4017 22.0226 22.5784 21.5892 22.4436 21.2424C22.4192 21.1795 20.1993 17.0673 17.5105 12.1041C14.1211 5.84758 12.5946 3.05187 12.5329 2.98805C12.3964 2.8466 12.2346 2.774 12.036 2.765C11.9436 2.76082 11.841 2.76627 11.808 2.77714ZM11.8602 8.0156C11.6224 8.05402 11.4236 8.21449 11.3121 8.45785L11.2554 8.58178L11.2617 12.155L11.268 15.7281L11.323 15.8311C11.3933 15.9627 11.5375 16.1069 11.669 16.1771C11.7556 16.2232 11.8084 16.232 12 16.232C12.1916 16.232 12.2445 16.2232 12.331 16.1771C12.4625 16.1069 12.6067 15.9627 12.677 15.8311L12.732 15.7281L12.7383 12.155L12.7447 8.58178L12.6879 8.45785C12.6167 8.30223 12.5074 8.17673 12.3763 8.09989C12.2864 8.04723 12.2319 8.03158 12.036 8.00213C12.0096 7.99817 11.9305 8.00422 11.8602 8.0156ZM11.6517 17.798C11.3729 17.8974 11.1065 18.1311 10.9827 18.385C10.7778 18.8052 10.8625 19.3209 11.1913 19.6549C11.4277 19.895 11.6534 19.9912 11.988 19.9944C12.2645 19.997 12.4594 19.9348 12.6661 19.778C13.042 19.4927 13.1962 19.073 13.094 18.6135C13.0226 18.2925 12.7758 17.9944 12.456 17.8429C12.3158 17.7764 12.2733 17.7682 12.036 17.762C11.8302 17.7567 11.7455 17.7646 11.6517 17.798ZM0.00878949 21.4881C0.00886149 21.6201 0.0128935 21.671 0.0177415 21.6013C0.0226135 21.5316 0.0225655 21.4236 0.0176455 21.3613C0.0127015 21.299 0.00874149 21.3561 0.00878949 21.4881Z" fill="orange"/>
</g>
</svg>
