<svg viewBox="0 0 1024 1024" fill="none"
  xmlns="http://www.w3.org/2000/svg">
  <path d="M182 898.827V795.173H197.835V884.606H254.305V898.827H182Z" fill="white" />
  <path d="M268.804 898.827V795.173H284.639V898.827H268.804Z" fill="white" />
  <path d="M309.357 898.827V795.173H349.543C354.623 795.173 359.254 795.613 363.437 796.492C367.719 797.274 371.404 798.692 374.492 800.744C377.579 802.699 379.919 805.387 381.513 808.808C383.206 812.131 384.053 816.334 384.053 821.416C384.053 826.401 382.907 830.897 380.617 834.905C378.326 838.814 374.84 841.746 370.159 843.701C376.434 845.07 381.164 847.855 384.351 852.058C387.638 856.261 389.281 861.783 389.281 868.625C389.281 874.49 388.186 879.377 385.995 883.286C383.804 887.196 380.766 890.275 376.882 892.523C372.998 894.771 368.516 896.384 363.437 897.361C358.357 898.338 352.93 898.827 347.153 898.827H309.357ZM325.193 884.606H347.751C350.739 884.606 353.726 884.459 356.714 884.166C359.702 883.775 362.441 883.042 364.931 881.967C367.52 880.892 369.562 879.279 371.056 877.129C372.649 874.978 373.446 872.095 373.446 868.479C373.446 865.449 372.848 862.956 371.653 861.001C370.458 858.949 368.865 857.336 366.873 856.163C364.881 854.99 362.54 854.16 359.851 853.671C357.262 853.182 354.573 852.938 351.784 852.938H325.193V884.606ZM325.193 839.596H345.211C348.597 839.596 351.685 839.303 354.473 838.716C357.362 838.13 359.851 837.153 361.943 835.784C364.034 834.416 365.628 832.705 366.723 830.653C367.918 828.503 368.516 825.912 368.516 822.882C368.616 818.875 367.719 815.943 365.827 814.086C364.034 812.131 361.594 810.86 358.507 810.274C355.419 809.59 352.033 809.248 348.348 809.248H325.193V839.596Z" fill="white" />
  <path d="M408.42 898.827V795.173H481.173V809.394H424.255V840.476H474.599V854.55H424.255V884.606H481.173V898.827H408.42Z" fill="white" />
  <path d="M500.184 898.827V795.173H540.818C546.495 795.173 551.673 795.759 556.354 796.932C561.035 798.007 565.119 799.816 568.604 802.357C572.09 804.8 574.779 808.124 576.671 812.326C578.564 816.529 579.51 821.71 579.51 827.867C579.51 833.438 578.514 838.228 576.522 842.235C574.53 846.243 571.791 849.566 568.306 852.205C564.82 854.844 560.886 856.847 556.504 858.216L579.062 898.827H561.583L540.668 860.708H516.019V898.827H500.184ZM516.019 846.78H537.531C541.117 846.78 544.453 846.536 547.54 846.047C550.727 845.461 553.516 844.483 555.906 843.115C558.296 841.649 560.139 839.694 561.434 837.25C562.828 834.709 563.525 831.484 563.525 827.574C563.625 823.078 562.728 819.51 560.836 816.871C559.043 814.135 556.354 812.229 552.769 811.154C549.184 809.981 544.851 809.394 539.772 809.394H516.019V846.78Z" fill="white" />
  <path d="M599.972 898.827V795.173H615.807V898.827H599.972Z" fill="white" />
  <path d="M685.342 900C674.487 900 665.274 897.752 657.705 893.256C650.236 888.662 644.559 882.358 640.675 874.343C636.79 866.328 634.848 857.238 634.848 847.073C634.848 836.811 636.79 827.672 640.675 819.657C644.559 811.642 650.285 805.387 657.854 800.891C665.424 796.297 674.636 794 685.492 794C696.447 794 705.659 796.248 713.129 800.744C720.598 805.24 726.275 811.496 730.159 819.51C734.043 827.525 735.985 836.664 735.985 846.927C735.985 857.092 734.043 866.182 730.159 874.196C726.275 882.211 720.549 888.515 712.979 893.109C705.51 897.703 696.298 900 685.342 900ZM685.492 885.779C693.459 885.779 699.982 883.97 705.062 880.354C710.141 876.738 713.876 871.997 716.266 866.133C718.656 860.268 719.851 853.915 719.851 847.073C719.851 841.893 719.154 836.957 717.76 832.266C716.465 827.574 714.424 823.42 711.635 819.804C708.846 816.187 705.261 813.353 700.879 811.3C696.497 809.248 691.368 808.221 685.492 808.221C677.624 808.221 671.1 810.03 665.922 813.646C660.842 817.262 657.058 822.003 654.568 827.867C652.078 833.732 650.833 840.134 650.833 847.073C650.833 853.915 652.028 860.268 654.418 866.133C656.908 871.997 660.693 876.738 665.772 880.354C670.951 883.97 677.524 885.779 685.492 885.779Z" fill="white" />
  <path d="M754.906 898.827V795.173H773.281L826.314 876.102V795.173H842V898.827H824.073L770.741 818.337V898.827H754.906Z" fill="white" />
  <path d="M300.339 274.015C339.543 196.967 419.631 144.182 512 144.182C604.369 144.182 684.457 196.967 723.661 274.015C726.761 271.334 729.801 268.594 732.801 265.774C734.902 263.814 736.962 261.813 739.002 259.813C695.578 178.945 610.19 124 512 124C413.81 124 328.422 178.945 284.998 259.813C287.038 261.813 289.098 263.814 291.198 265.774C294.199 268.594 297.239 271.334 300.339 274.015Z" fill="white" />
  <path d="M412.93 558.303C412.93 558.143 412.93 557.963 412.89 557.803C411.49 536.621 406.61 513.958 393.888 495.617C371.886 463.894 325.382 443.612 310.02 436.911C305.34 434.871 290.498 428.33 277.197 413.409C275.157 411.108 272.076 407.308 268.936 401.788C268.336 400.707 267.716 399.587 267.116 398.367C261.475 454.773 275.057 481.475 289.898 495.337C313.2 517.119 345.144 512.318 386.668 546.242C398.809 556.163 407.57 565.944 413.17 572.844C413.21 567.764 413.11 562.923 412.91 558.303H412.93Z" fill="white" />
  <path d="M516.701 206.526C515.12 206.426 513.56 206.386 512 206.386C510.44 206.386 508.88 206.426 507.3 206.526C471.096 208.806 441.713 238.149 439.393 274.352C436.653 316.717 470.216 351.96 512 351.96C553.784 351.96 587.347 316.717 584.607 274.352C582.287 238.149 552.904 208.806 516.701 206.526Z" fill="white" />
  <path d="M755.084 401.788C751.964 407.308 748.883 411.108 746.823 413.409C733.522 428.35 718.68 434.871 714 436.911C698.638 443.612 652.134 463.894 630.132 495.617C617.39 513.958 612.51 536.621 611.13 557.803C611.13 557.963 611.13 558.143 611.09 558.303C610.89 562.923 610.79 567.764 610.83 572.844C616.45 565.924 625.191 556.143 637.332 546.242C678.876 512.318 710.8 517.119 734.102 495.337C748.943 481.475 762.525 454.773 756.884 398.367C756.304 399.567 755.684 400.707 755.064 401.788H755.084Z" fill="white" />
  <path d="M594.208 604.349C591.348 577.866 584.927 519.56 612.75 480.036C636.813 445.833 687.637 423.991 704.439 416.77C709.56 414.57 725.781 407.509 740.323 391.428C742.563 388.948 745.923 384.847 749.343 378.907C752.404 373.586 755.504 366.765 757.884 358.265C763.385 338.603 762.405 317.661 755.824 298.339C753.544 291.678 751.004 285.137 748.223 278.757C743.263 284.097 738.122 289.238 732.802 294.218C675.076 348.404 597.429 381.567 512 381.567C426.572 381.567 348.924 348.404 291.199 294.218C285.878 289.238 280.738 284.097 275.777 278.757C272.997 285.137 270.457 291.678 268.176 298.339C261.596 317.661 260.616 338.603 266.116 358.265C268.497 366.765 271.597 373.586 274.657 378.907C278.077 384.847 281.438 388.948 283.678 391.428C298.219 407.509 314.441 414.57 319.562 416.77C336.363 423.991 387.188 445.833 411.25 480.036C439.073 519.56 432.653 577.866 429.792 604.349C429.072 610.989 428.132 617.81 426.992 624.771C422.572 651.853 415.031 681.096 403.87 711.439C403.87 711.439 427.552 724.12 484.678 724C489.058 705.579 493.218 686.497 497.079 666.795C498.919 657.414 500.659 648.133 502.279 638.952C503.479 632.211 504.62 625.511 505.7 618.89C506.98 611.049 508.18 603.289 509.3 595.608C509.54 594.048 510.78 593.268 512 593.288C513.22 593.288 514.461 594.048 514.701 595.608C515.821 603.289 517.021 611.049 518.301 618.89C519.381 625.511 520.521 632.211 521.721 638.952C523.341 648.133 525.082 657.414 526.922 666.795C530.782 686.497 534.943 705.579 539.323 724C596.449 724.12 620.131 711.439 620.131 711.439C608.97 681.096 601.429 651.853 597.009 624.771C595.869 617.81 594.928 610.989 594.208 604.349Z" fill="white" />
</svg>
